<svg viewBox="0 0 500 450" xmlns="http://www.w3.org/2000/svg" class="diagram-cone"><rect x="0" y="0" width="500" height="450" fill="#ffffff"/><defs>
    <linearGradient id="beamGradient" x1="50%" y1="0%" x2="50%" y2="100%">
        <stop offset="0%" stop-color="#fbbf24" stop-opacity="0.8"/>
        <stop offset="100%" stop-color="#fbbf24" stop-opacity="0.3"/>
    </linearGradient>
    <linearGradient id="fieldGradient" x1="50%" y1="0%" x2="50%" y2="100%">
        <stop offset="0%" stop-color="#f97316" stop-opacity="0.5"/>
        <stop offset="100%" stop-color="#f97316" stop-opacity="0.15"/>
    </linearGradient>
</defs><path d="M 250 60 L 88.5 370 L 411.5 370 Z" fill="url(#fieldGradient)" stroke="#f97316" stroke-width="1.5" stroke-dasharray="6,3"/><path d="M 250 60 L 177.9 370 L 322.1 370 Z" fill="url(#beamGradient)" stroke="#fbbf24" stroke-width="2"/><line x1="250" y1="60" x2="250" y2="370" stroke="#64748b" stroke-width="1" stroke-dasharray="4,4"/><rect x="230.0" y="54.0" width="40" height="12" fill="#f8fafc" stroke="#1e293b" stroke-width="1.5" rx="2"/><circle cx="250" cy="60" r="3" fill="#fbbf24"/><line x1="60" y1="370" x2="440.0" y2="370" stroke="#94a3b8" stroke-width="2"/><text x="435.0" y="365.0" text-anchor="end" font-size="11" fill="#64748b" font-family="system-ui, -apple-system, sans-serif">Floor</text><line x1="35" y1="60" x2="35" y2="370" stroke="#64748b" stroke-width="1"/><line x1="30.0" y1="60" x2="40.0" y2="60" stroke="#64748b" stroke-width="1"/><line x1="30.0" y1="370" x2="40.0" y2="370" stroke="#64748b" stroke-width="1"/><text x="35" y="215.0" text-anchor="middle" font-size="11" fill="#1e293b" font-family="system-ui, -apple-system, sans-serif" transform="rotate(-90, 35, 215.0)">3.0m</text><line x1="177.9" y1="370" x2="177.9" y2="395.0" stroke="#fbbf24" stroke-width="1"/><line x1="322.1" y1="370" x2="322.1" y2="395.0" stroke="#fbbf24" stroke-width="1"/><line x1="177.9" y1="390" x2="322.1" y2="390" stroke="#fbbf24" stroke-width="1.5"/><text x="250" y="386.0" text-anchor="middle" font-size="11" fill="#b45309" font-family="system-ui, -apple-system, sans-serif" font-weight="600">Beam ⌀ 2.92m</text><line x1="88.5" y1="400.0" x2="88.5" y2="420.0" stroke="#f97316" stroke-width="1"/><line x1="411.5" y1="400.0" x2="411.5" y2="420.0" stroke="#f97316" stroke-width="1"/><line x1="88.5" y1="415" x2="411.5" y2="415" stroke="#f97316" stroke-width="1.5" stroke-dasharray="4,2"/><text x="250" y="411.0" text-anchor="middle" font-size="10" fill="#c2410c" font-family="system-ui, -apple-system, sans-serif">Field ⌀ 6.54m</text><path d="M 250 110.0 A 50 50 0 0 1 271.9 105.0" fill="none" stroke="#fbbf24" stroke-width="1.5"/><text x="308.0" y="89.0" font-size="11" fill="#b45309" font-family="system-ui, -apple-system, sans-serif" font-weight="600">26° (50%)</text><path d="M 250 130.0 A 70 70 0 0 1 301.6 107.3" fill="none" stroke="#f97316" stroke-width="1" stroke-dasharray="4,2"/><text x="328.0" y="115.0" font-size="10" fill="#c2410c" font-family="system-ui, -apple-system, sans-serif">47° (10%)</text><rect x="15" y="15" width="130" height="50" fill="rgba(255,255,255,0.9)" stroke="#94a3b8" stroke-width="1" rx="4" opacity="0.95"/><rect x="23.0" y="25.0" width="16" height="10" fill="#fbbf24" rx="2"/><text x="45.0" y="33.0" font-size="10" fill="#1e293b" font-family="system-ui, -apple-system, sans-serif">Beam Angle (50%)</text><rect x="23.0" y="43.0" width="16" height="10" fill="#f9731640" stroke="#f97316" stroke-dasharray="3,1" rx="2"/><text x="45.0" y="51.0" font-size="10" fill="#1e293b" font-family="system-ui, -apple-system, sans-serif">Field Angle (10%)</text><text x="485.0" y="30" text-anchor="end" font-size="12" fill="#1e293b" font-family="system-ui, -apple-system, sans-serif" font-weight="600">Spot</text></svg>