<svg viewBox="0 0 600 550" xmlns="http://www.w3.org/2000/svg" class="diagram-cone-wikipedia"><rect x="0" y="0" width="600" height="550" fill="#ffffff"/><text x="300" y="25" text-anchor="middle" font-size="16" font-weight="bold" fill="#1e293b" font-family="system-ui, -apple-system, sans-serif">Beam Angle and Field Angle</text><text x="300" y="45" text-anchor="middle" font-size="12" fill="#64748b" font-family="system-ui, -apple-system, sans-serif">Light distribution from a luminaire</text><defs>
    <linearGradient id="beamGradWiki" x1="50%" y1="0%" x2="50%" y2="100%">
        <stop offset="0%" stop-color="#22c55e" stop-opacity="0.6"/>
        <stop offset="100%" stop-color="#22c55e" stop-opacity="0.2"/>
    </linearGradient>
    <linearGradient id="fieldGradWiki" x1="50%" y1="0%" x2="50%" y2="100%">
        <stop offset="0%" stop-color="#f97316" stop-opacity="0.4"/>
        <stop offset="100%" stop-color="#f97316" stop-opacity="0.1"/>
    </linearGradient>
</defs><path d="M 300 70 L 113.0 450 L 487.0 450 Z" fill="url(#fieldGradWiki)" stroke="#f97316" stroke-width="2" stroke-dasharray="8,4"/><path d="M 300 70 L 216.5 450 L 383.5 450 Z" fill="url(#beamGradWiki)" stroke="#22c55e" stroke-width="2.5"/><line x1="300" y1="70" x2="300" y2="450" stroke="#64748b" stroke-width="1.5" stroke-dasharray="6,4"/><text x="308.0" y="298.0" font-size="10" fill="#64748b" font-family="system-ui, -apple-system, sans-serif">Beam axis</text><rect x="275.0" y="63.0" width="50" height="14" fill="#f8fafc" stroke="#1e293b" stroke-width="2" rx="3"/><text x="300" y="58.0" text-anchor="middle" font-size="9" fill="#64748b" font-family="system-ui, -apple-system, sans-serif">Luminaire</text><circle cx="300" cy="70" r="4" fill="#fbbf24" stroke="#1e293b" stroke-width="1"/><line x1="80" y1="450" x2="520.0" y2="450" stroke="#94a3b8" stroke-width="2.5"/><text x="515.0" y="442.0" font-size="11" fill="#64748b" font-family="system-ui, -apple-system, sans-serif">Work plane / Floor</text><path d="M 300 130.0 A 60 60 0 0 1 326.2 124.0" fill="none" stroke="#22c55e" stroke-width="2.5"/><text x="375.0" y="95.0" font-size="13" font-weight="bold" fill="#22c55e" font-family="system-ui, -apple-system, sans-serif">Beam angle</text><text x="375.0" y="112.0" font-size="12" fill="#22c55e" font-family="system-ui, -apple-system, sans-serif">26° (50% I_max)</text><path d="M 300 155.0 A 85 85 0 0 1 362.6 127.5" fill="none" stroke="#f97316" stroke-width="2" stroke-dasharray="6,3"/><text x="400.0" y="142.5" font-size="12" font-weight="bold" fill="#f97316" font-family="system-ui, -apple-system, sans-serif">Field angle</text><text x="400.0" y="157.5" font-size="11" fill="#f97316" font-family="system-ui, -apple-system, sans-serif">47° (10% I_max)</text><line x1="45" y1="70" x2="45" y2="450" stroke="#64748b" stroke-width="1"/><line x1="39.0" y1="70" x2="51.0" y2="70" stroke="#64748b" stroke-width="1"/><line x1="39.0" y1="450" x2="51.0" y2="450" stroke="#64748b" stroke-width="1"/><text x="45" y="260.0" text-anchor="middle" font-size="11" fill="#1e293b" font-family="system-ui, -apple-system, sans-serif" transform="rotate(-90, 45, 260.0)">Mounting height: 3.0m</text><line x1="216.5" y1="450" x2="216.5" y2="480.0" stroke="#22c55e" stroke-width="1"/><line x1="383.5" y1="450" x2="383.5" y2="480.0" stroke="#22c55e" stroke-width="1"/><line x1="216.5" y1="475" x2="383.5" y2="475" stroke="#22c55e" stroke-width="2"/><text x="300" y="469.0" text-anchor="middle" font-size="11" font-weight="bold" fill="#22c55e" font-family="system-ui, -apple-system, sans-serif">Beam ⌀ 2.92m</text><line x1="113.0" y1="485.0" x2="113.0" y2="510.0" stroke="#f97316" stroke-width="1"/><line x1="487.0" y1="485.0" x2="487.0" y2="510.0" stroke="#f97316" stroke-width="1"/><line x1="113.0" y1="505" x2="487.0" y2="505" stroke="#f97316" stroke-width="1.5" stroke-dasharray="6,3"/><text x="300" y="499.0" text-anchor="middle" font-size="10" fill="#f97316" font-family="system-ui, -apple-system, sans-serif">Field ⌀ 6.54m</text><rect x="15" y="60" width="180" height="78" fill="rgba(255,255,255,0.9)" stroke="#e2e8f0" stroke-width="1" rx="4"/><text x="23.0" y="76.0" font-size="11" font-weight="bold" fill="#1e293b" font-family="system-ui, -apple-system, sans-serif">Definitions (IES):</text><rect x="23.0" y="86.0" width="14" height="10" fill="rgba(34, 197, 94, 0.3)" stroke="#22c55e" stroke-width="1.5" rx="2"/><text x="43.0" y="94.0" font-size="10" fill="#1e293b" font-family="system-ui, -apple-system, sans-serif">Beam: I ≥ 50% of I_max</text><rect x="23.0" y="104.0" width="14" height="10" fill="rgba(249, 115, 22, 0.15)" stroke="#f97316" stroke-width="1.5" stroke-dasharray="3,1" rx="2"/><text x="43.0" y="112.0" font-size="10" fill="#1e293b" font-family="system-ui, -apple-system, sans-serif">Field: I ≥ 10% of I_max</text><text x="23.0" y="130.0" font-size="10" fill="#1e293b" font-family="system-ui, -apple-system, sans-serif">Classification: Spot</text><text x="300" y="538.0" text-anchor="middle" font-size="9" fill="#64748b" font-family="system-ui, -apple-system, sans-serif">Beam diameter = 2 × height × tan(beam_angle / 2)</text></svg>