<svg viewBox="0 0 600 600" xmlns="http://www.w3.org/2000/svg" class="diagram-polar-beam-angle"><defs>
    <marker id="arrowhead" markerWidth="10" markerHeight="7" refX="9" refY="3.5" orient="auto">
        <polygon points="0 0, 10 3.5, 0 7" fill="#22c55e"/>
    </marker>
    <marker id="arrowhead-cie" markerWidth="10" markerHeight="7" refX="9" refY="3.5" orient="auto">
        <polygon points="0 0, 10 3.5, 0 7" fill="#3b82f6"/>
    </marker>
</defs><rect x="0" y="0" width="600" height="600" fill="#ffffff"/><circle cx="300" cy="300" r="46.0" fill="none" stroke="#e2e8f0" stroke-width="1" opacity="0.5"/><circle cx="300" cy="300" r="92.0" fill="none" stroke="#e2e8f0" stroke-width="1" opacity="0.5"/><circle cx="300" cy="300" r="138.0" fill="none" stroke="#e2e8f0" stroke-width="1" opacity="0.5"/><circle cx="300" cy="300" r="184.0" fill="none" stroke="#e2e8f0" stroke-width="1" opacity="0.5"/><circle cx="300" cy="300" r="230.0" fill="none" stroke="#94a3b8" stroke-width="1" opacity="0.5"/><line x1="300" y1="300" x2="300.0" y2="530.0" stroke="#e2e8f0" stroke-width="0.5" opacity="0.5"/><line x1="300" y1="300" x2="300.0" y2="530.0" stroke="#e2e8f0" stroke-width="0.5" opacity="0.5"/><line x1="300" y1="300" x2="185.0" y2="499.2" stroke="#e2e8f0" stroke-width="0.5" opacity="0.5"/><line x1="300" y1="300" x2="415.0" y2="499.2" stroke="#e2e8f0" stroke-width="0.5" opacity="0.5"/><text x="422.5" y="512.2" text-anchor="middle" dominant-baseline="middle" font-size="10" fill="#64748b" font-family="system-ui, -apple-system, sans-serif">30°</text><line x1="300" y1="300" x2="100.8" y2="415.0" stroke="#e2e8f0" stroke-width="0.5" opacity="0.5"/><line x1="300" y1="300" x2="499.2" y2="415.0" stroke="#e2e8f0" stroke-width="0.5" opacity="0.5"/><text x="512.2" y="422.5" text-anchor="middle" dominant-baseline="middle" font-size="10" fill="#64748b" font-family="system-ui, -apple-system, sans-serif">60°</text><line x1="300" y1="300" x2="100.8" y2="185.0" stroke="#e2e8f0" stroke-width="0.5" opacity="0.5"/><line x1="300" y1="300" x2="499.2" y2="185.0" stroke="#e2e8f0" stroke-width="0.5" opacity="0.5"/><line x1="300" y1="300" x2="185.0" y2="100.8" stroke="#e2e8f0" stroke-width="0.5" opacity="0.5"/><line x1="300" y1="300" x2="415.0" y2="100.8" stroke="#e2e8f0" stroke-width="0.5" opacity="0.5"/><line x1="300" y1="300" x2="300.0" y2="70.0" stroke="#e2e8f0" stroke-width="0.5" opacity="0.5"/><line x1="300" y1="300" x2="300.0" y2="70.0" stroke="#e2e8f0" stroke-width="0.5" opacity="0.5"/><line x1="70.0" y1="300" x2="530.0" y2="300" stroke="#94a3b8" stroke-width="1"/><path d="M 300.0 530.0 L 319.0 516.7 L 332.0 481.4 L 336.1 434.7 L 332.3 388.9 L 324.2 352.0 L 315.6 327.0 L 308.7 312.4 L 304.2 305.0 L 301.8 301.8 L 300.7 300.6 L 300.2 300.2 L 300.1 300.0 L 300.0 300.0 L 300.0 300.0 L 300.0 300.0 L 300.0 300.0 L 300.0 300.0 L 300.0 300.0 L 300.0 300.0 L 300.0 300.0 L 300.0 300.0 L 300.0 300.0 L 300.0 300.0 L 300.0 300.0 L 299.9 300.0 L 299.8 300.2 L 299.3 300.6 L 298.2 301.8 L 295.8 305.0 L 291.3 312.4 L 284.4 327.0 L 275.8 352.0 L 267.7 388.9 L 263.9 434.7 L 268.0 481.4 L 281.0 516.7 L 300.0 530.0 Z" fill="rgba(234,179,8,0.4)" stroke="#eab308" stroke-width="2"/><circle cx="300" cy="300" r="4" fill="#1e293b"/><path d="M 359.5 486.2 A 195.5 195.5 0 0 1 240.5 486.2" fill="none" stroke="#22c55e" stroke-width="2.5"/><line x1="300" y1="300" x2="359.5" y2="486.2" stroke="#22c55e" stroke-width="1.5"/><line x1="300" y1="300" x2="240.5" y2="486.2" stroke="#22c55e" stroke-width="1.5"/><text x="300" y="513.5" text-anchor="middle" font-size="12" font-weight="bold" fill="#22c55e" font-family="system-ui, -apple-system, sans-serif">Beam (IES): 35°</text><path d="M 389.0 439.5 A 165.5 165.5 0 0 1 211.0 439.5" fill="none" stroke="#f97316" stroke-width="2.5" stroke-dasharray="6,3"/><line x1="300" y1="300" x2="389.0" y2="439.5" stroke="#f97316" stroke-width="1.5" stroke-dasharray="6,3"/><line x1="300" y1="300" x2="211.0" y2="439.5" stroke="#f97316" stroke-width="1.5" stroke-dasharray="6,3"/><text x="300" y="483.5" text-anchor="middle" font-size="12" font-weight="bold" fill="#f97316" font-family="system-ui, -apple-system, sans-serif">Field (IES): 65°</text><circle cx="300" cy="300" r="115.0" fill="none" stroke="#22c55e" stroke-width="1" stroke-dasharray="4,4" opacity="0.7"/><text x="418.0" y="297.0" font-size="9" fill="#22c55e" font-family="system-ui, -apple-system, sans-serif">50%</text><circle cx="300" cy="300" r="23.0" fill="none" stroke="#f97316" stroke-width="1" stroke-dasharray="4,4" opacity="0.7"/><text x="326.0" y="297.0" font-size="9" fill="#f97316" font-family="system-ui, -apple-system, sans-serif">10%</text><text x="300" y="25" text-anchor="middle" font-size="14" font-weight="bold" fill="#1e293b" font-family="system-ui, -apple-system, sans-serif">Luminous Intensity Distribution</text><rect x="15" y="510" width="170" height="75" fill="rgba(255,255,255,0.9)" stroke="#e2e8f0" rx="4"/><line x1="23" y1="525" x2="43" y2="525" stroke="#eab308" stroke-width="3"/><text x="50" y="528" font-size="10" fill="#1e293b" font-family="system-ui, -apple-system, sans-serif">Intensity (cd/klm)</text><line x1="23" y1="542" x2="43" y2="542" stroke="#22c55e" stroke-width="2.5"/><text x="50" y="545" font-size="10" fill="#1e293b" font-family="system-ui, -apple-system, sans-serif">Beam angle (50% I_max)</text><line x1="23" y1="559" x2="43" y2="559" stroke="#f97316" stroke-width="2.5" stroke-dasharray="6,3"/><text x="50" y="562" font-size="10" fill="#1e293b" font-family="system-ui, -apple-system, sans-serif">Field angle (10% I_max)</text><text x="585.0" y="585.0" text-anchor="end" font-size="10" fill="#64748b" font-family="system-ui, -apple-system, sans-serif">cd/1000lm</text></svg>