<svg viewBox="0 0 600 600" xmlns="http://www.w3.org/2000/svg" class="diagram-polar-beam-angle"><defs>
    <marker id="arrowhead" markerWidth="10" markerHeight="7" refX="9" refY="3.5" orient="auto">
        <polygon points="0 0, 10 3.5, 0 7" fill="#22c55e"/>
    </marker>
    <marker id="arrowhead-cie" markerWidth="10" markerHeight="7" refX="9" refY="3.5" orient="auto">
        <polygon points="0 0, 10 3.5, 0 7" fill="#3b82f6"/>
    </marker>
</defs><rect x="0" y="0" width="600" height="600" fill="#ffffff"/><circle cx="300" cy="300" r="46.0" fill="none" stroke="#e2e8f0" stroke-width="1" opacity="0.5"/><circle cx="300" cy="300" r="92.0" fill="none" stroke="#e2e8f0" stroke-width="1" opacity="0.5"/><circle cx="300" cy="300" r="138.0" fill="none" stroke="#e2e8f0" stroke-width="1" opacity="0.5"/><circle cx="300" cy="300" r="184.0" fill="none" stroke="#e2e8f0" stroke-width="1" opacity="0.5"/><circle cx="300" cy="300" r="230.0" fill="none" stroke="#94a3b8" stroke-width="1" opacity="0.5"/><line x1="300" y1="300" x2="300.0" y2="530.0" stroke="#e2e8f0" stroke-width="0.5" opacity="0.5"/><line x1="300" y1="300" x2="300.0" y2="530.0" stroke="#e2e8f0" stroke-width="0.5" opacity="0.5"/><line x1="300" y1="300" x2="185.0" y2="499.2" stroke="#e2e8f0" stroke-width="0.5" opacity="0.5"/><line x1="300" y1="300" x2="415.0" y2="499.2" stroke="#e2e8f0" stroke-width="0.5" opacity="0.5"/><text x="422.5" y="512.2" text-anchor="middle" dominant-baseline="middle" font-size="10" fill="#64748b" font-family="system-ui, -apple-system, sans-serif">30°</text><line x1="300" y1="300" x2="100.8" y2="415.0" stroke="#e2e8f0" stroke-width="0.5" opacity="0.5"/><line x1="300" y1="300" x2="499.2" y2="415.0" stroke="#e2e8f0" stroke-width="0.5" opacity="0.5"/><text x="512.2" y="422.5" text-anchor="middle" dominant-baseline="middle" font-size="10" fill="#64748b" font-family="system-ui, -apple-system, sans-serif">60°</text><line x1="300" y1="300" x2="100.8" y2="185.0" stroke="#e2e8f0" stroke-width="0.5" opacity="0.5"/><line x1="300" y1="300" x2="499.2" y2="185.0" stroke="#e2e8f0" stroke-width="0.5" opacity="0.5"/><line x1="300" y1="300" x2="185.0" y2="100.8" stroke="#e2e8f0" stroke-width="0.5" opacity="0.5"/><line x1="300" y1="300" x2="415.0" y2="100.8" stroke="#e2e8f0" stroke-width="0.5" opacity="0.5"/><line x1="300" y1="300" x2="300.0" y2="70.0" stroke="#e2e8f0" stroke-width="0.5" opacity="0.5"/><line x1="300" y1="300" x2="300.0" y2="70.0" stroke="#e2e8f0" stroke-width="0.5" opacity="0.5"/><line x1="70.0" y1="300" x2="530.0" y2="300" stroke="#94a3b8" stroke-width="1"/><path d="M 300.0 429.4 L 311.8 434.6 L 325.5 444.4 L 341.7 455.5 L 361.0 467.5 L 382.6 477.2 L 404.9 481.8 L 425.3 479.0 L 444.1 471.8 L 456.5 456.5 L 463.0 436.8 L 460.1 412.1 L 446.9 384.8 L 422.5 357.1 L 391.9 333.4 L 355.5 314.9 L 325.5 304.5 L 308.6 300.8 L 301.4 300.0 L 298.6 300.0 L 291.4 300.8 L 274.5 304.5 L 244.5 314.9 L 208.1 333.4 L 177.5 357.1 L 153.1 384.8 L 139.9 412.1 L 137.0 436.8 L 143.5 456.5 L 155.9 471.8 L 174.7 479.0 L 195.1 481.8 L 217.4 477.2 L 239.0 467.5 L 258.3 455.5 L 274.5 444.4 L 288.2 434.6 L 300.0 429.4 Z" fill="rgba(234,179,8,0.4)" stroke="#eab308" stroke-width="2"/><circle cx="300" cy="300" r="4" fill="#1e293b"/><path d="M 481.4 373.0 A 195.5 195.5 0 1 1 118.6 373.0" fill="none" stroke="#22c55e" stroke-width="2.5"/><line x1="300" y1="300" x2="481.4" y2="373.0" stroke="#22c55e" stroke-width="1.5"/><line x1="300" y1="300" x2="118.6" y2="373.0" stroke="#22c55e" stroke-width="1.5"/><text x="300" y="513.5" text-anchor="middle" font-size="12" font-weight="bold" fill="#22c55e" font-family="system-ui, -apple-system, sans-serif">Beam (IES): 136°</text><path d="M 463.5 325.9 A 165.5 165.5 0 1 1 136.5 325.9" fill="none" stroke="#f97316" stroke-width="2.5" stroke-dasharray="6,3"/><line x1="300" y1="300" x2="463.5" y2="325.9" stroke="#f97316" stroke-width="1.5" stroke-dasharray="6,3"/><line x1="300" y1="300" x2="136.5" y2="325.9" stroke="#f97316" stroke-width="1.5" stroke-dasharray="6,3"/><text x="300" y="483.5" text-anchor="middle" font-size="12" font-weight="bold" fill="#f97316" font-family="system-ui, -apple-system, sans-serif">Field (IES): 162°</text><path d="M 430.3 337.1 A 135.5 135.5 0 1 1 169.7 337.1" fill="none" stroke="#3b82f6" stroke-width="2.5"/><line x1="300" y1="300" x2="430.3" y2="337.1" stroke="#3b82f6" stroke-width="1.5"/><line x1="300" y1="300" x2="169.7" y2="337.1" stroke="#3b82f6" stroke-width="1.5"/><text x="300" y="453.5" text-anchor="middle" font-size="12" font-weight="bold" fill="#3b82f6" font-family="system-ui, -apple-system, sans-serif">Beam (CIE): 148°</text><circle cx="300" cy="300" r="112.1" fill="none" stroke="#22c55e" stroke-width="1" stroke-dasharray="4,4" opacity="0.7"/><text x="415.1" y="297.0" font-size="9" fill="#22c55e" font-family="system-ui, -apple-system, sans-serif">50%</text><circle cx="300" cy="300" r="22.4" fill="none" stroke="#f97316" stroke-width="1" stroke-dasharray="4,4" opacity="0.7"/><text x="325.4" y="297.0" font-size="9" fill="#f97316" font-family="system-ui, -apple-system, sans-serif">10%</text><text x="300" y="25" text-anchor="middle" font-size="14" font-weight="bold" fill="#1e293b" font-family="system-ui, -apple-system, sans-serif">Luminous Intensity Distribution</text><rect x="15" y="510" width="170" height="75" fill="rgba(255,255,255,0.9)" stroke="#e2e8f0" rx="4"/><line x1="23" y1="525" x2="43" y2="525" stroke="#eab308" stroke-width="3"/><text x="50" y="528" font-size="10" fill="#1e293b" font-family="system-ui, -apple-system, sans-serif">Intensity (cd/klm)</text><line x1="23" y1="542" x2="43" y2="542" stroke="#22c55e" stroke-width="2.5"/><text x="50" y="545" font-size="10" fill="#1e293b" font-family="system-ui, -apple-system, sans-serif">Beam angle (50% I_max)</text><line x1="23" y1="559" x2="43" y2="559" stroke="#f97316" stroke-width="2.5" stroke-dasharray="6,3"/><text x="50" y="562" font-size="10" fill="#1e293b" font-family="system-ui, -apple-system, sans-serif">Field angle (10% I_max)</text><line x1="23" y1="576" x2="43" y2="576" stroke="#3b82f6" stroke-width="2.5"/><text x="50" y="579" font-size="10" fill="#1e293b" font-family="system-ui, -apple-system, sans-serif">Beam angle CIE (50% I_center)</text><text x="585" y="45" text-anchor="end" font-size="10" fill="#64748b" font-family="system-ui, -apple-system, sans-serif">Distribution: Moderate batwing</text><text x="585" y="58" text-anchor="end" font-size="10" fill="#64748b" font-family="system-ui, -apple-system, sans-serif">I_center/I_max: 58%</text><text x="585.0" y="585.0" text-anchor="end" font-size="10" fill="#64748b" font-family="system-ui, -apple-system, sans-serif">cd/1000lm</text></svg>